<?xml version="1.0" encoding="utf-8"?>
<!-- Generator: Adobe Illustrator 28.0.0, SVG Export Plug-In . SVG Version: 6.00 Build 0)  -->
<svg version="1.1" id="Layer_1" xmlns="http://www.w3.org/2000/svg" xmlns:xlink="http://www.w3.org/1999/xlink" x="0px" y="0px"
	 viewBox="0 0 1000.4 964.7" style="enable-background:new 0 0 1000.4 964.7;" xml:space="preserve">
<style type="text/css">
	.st0{fill:#FFFFFF;}
	.st1{fill:#1A1F3D;}
</style>
<g id="Objects">
	<g>
		<ellipse cx="500.2" cy="482.4" rx="500.2" ry="482.4"/>
		<g>
			<path class="st0" d="M537.7,628.8h-47.2c-11,0-19.5-9.1-18-19.3c8.1-55,49.7-94.1,86.8-129.1c39.7-37.4,73.9-69.6,73.9-116.5
				c0-62.3-54.2-113-120.8-113c-61.2,0-111.9,42.8-119.7,98.2c-1.2,8.5-8.8,14.9-18,14.9H328c-10.7,0-19.1-8.6-18.1-18.6
				c10-96.3,97-171.9,202.5-171.9c112.2,0,203.5,85.4,203.5,190.4c0,35.9-11.1,69.3-34,101.9c-18.5,26.4-41.6,48.2-64,69.2
				c-29.8,28-56,52.7-62.6,80.5C553.6,623.3,546.2,628.8,537.7,628.8z"/>
			<ellipse class="st0" cx="512.5" cy="744.8" rx="54.7" ry="51.2"/>
		</g>
		<circle class="st1" cx="123.1" cy="149.1" r="4.7"/>
	</g>
</g>
</svg>
